<mxfile host="app.diagrams.net" modified="2023-10-14T04:10:06.463Z" agent="Mozilla/5.0 (Windows NT 10.0; Win64; x64) AppleWebKit/537.36 (KHTML, like Gecko) Chrome/117.0.0.0 Safari/537.36" etag="u7FYx2HPVu4ZUu1Q2lFw" version="21.6.8" type="github">
  <diagram name="페이지-1" id="_zhWObkBJTCi86FzWA3e">
    <mxGraphModel dx="2015" dy="5709" grid="1" gridSize="10" guides="1" tooltips="1" connect="1" arrows="1" fold="1" page="1" pageScale="1" pageWidth="827" pageHeight="1169" math="0" shadow="0">
      <root>
        <mxCell id="0" />
        <mxCell id="1" parent="0" />
        <mxCell id="6JRFztURBps6u2nlOOap-1" value="&lt;h1 tabindex=&quot;-1&quot; id=&quot;user-content-incognito&quot; dir=&quot;auto&quot; style=&quot;box-sizing: border-box; margin-right: 0px; margin-bottom: 16px; margin-left: 0px; font-weight: var(--base-text-weight-semibold, 600); line-height: 1.25; padding-bottom: 0.3em; border-bottom: 1px solid var(--borderColor-muted, var(--color-border-muted)); color: rgb(31, 35, 40); font-family: -apple-system, BlinkMacSystemFont, &amp;quot;Segoe UI&amp;quot;, &amp;quot;Noto Sans&amp;quot;, Helvetica, Arial, sans-serif, &amp;quot;Apple Color Emoji&amp;quot;, &amp;quot;Segoe UI Emoji&amp;quot;; text-align: start; background-color: rgb(255, 255, 255); margin-top: 0px !important;&quot;&gt;&lt;a class=&quot;heading-link&quot; href=&quot;https://github.com/Student-Jasons/incognito/tree/main#incognito&quot; style=&quot;box-sizing: border-box; background-color: transparent; text-decoration-line: none;&quot;&gt;&lt;font style=&quot;font-size: 40px;&quot;&gt;incognito&lt;/font&gt;&lt;/a&gt;&lt;/h1&gt;&lt;div&gt;send algorithm&lt;/div&gt;&lt;div&gt;&lt;br&gt;&lt;/div&gt;" style="text;html=1;strokeColor=none;fillColor=none;align=center;verticalAlign=middle;whiteSpace=wrap;rounded=0;" vertex="1" parent="1">
          <mxGeometry x="384" y="-4640" width="60" height="30" as="geometry" />
        </mxCell>
        <mxCell id="6JRFztURBps6u2nlOOap-2" value="Send “This is a test” to ID 99887" style="ellipse;whiteSpace=wrap;html=1;" vertex="1" parent="1">
          <mxGeometry x="354" y="-4551" width="120" height="80" as="geometry" />
        </mxCell>
        <mxCell id="6JRFztURBps6u2nlOOap-3" value="" style="endArrow=classic;html=1;rounded=0;exitX=0.5;exitY=1;exitDx=0;exitDy=0;" edge="1" parent="1">
          <mxGeometry width="50" height="50" relative="1" as="geometry">
            <mxPoint x="414" y="-4474" as="sourcePoint" />
            <mxPoint x="414" y="-4414" as="targetPoint" />
          </mxGeometry>
        </mxCell>
        <mxCell id="6JRFztURBps6u2nlOOap-4" style="edgeStyle=orthogonalEdgeStyle;rounded=0;orthogonalLoop=1;jettySize=auto;html=1;entryX=0.987;entryY=0.45;entryDx=0;entryDy=0;entryPerimeter=0;" edge="1" parent="1" source="6JRFztURBps6u2nlOOap-5" target="6JRFztURBps6u2nlOOap-59">
          <mxGeometry relative="1" as="geometry" />
        </mxCell>
        <mxCell id="6JRFztURBps6u2nlOOap-5" value="Is the other person&#39;s gateway the same as mine?" style="rhombus;whiteSpace=wrap;html=1;" vertex="1" parent="1">
          <mxGeometry x="304" y="-4193" width="220" height="110" as="geometry" />
        </mxCell>
        <mxCell id="6JRFztURBps6u2nlOOap-6" value="" style="endArrow=classic;html=1;rounded=0;exitX=0.5;exitY=1;exitDx=0;exitDy=0;entryX=0.5;entryY=0;entryDx=0;entryDy=0;" edge="1" parent="1">
          <mxGeometry width="50" height="50" relative="1" as="geometry">
            <mxPoint x="414" y="-4083" as="sourcePoint" />
            <mxPoint x="414" y="-3983" as="targetPoint" />
          </mxGeometry>
        </mxCell>
        <mxCell id="6JRFztURBps6u2nlOOap-7" value="YES" style="text;html=1;strokeColor=none;fillColor=none;align=center;verticalAlign=middle;whiteSpace=wrap;rounded=0;" vertex="1" parent="1">
          <mxGeometry x="414" y="-4039" width="60" height="30" as="geometry" />
        </mxCell>
        <mxCell id="6JRFztURBps6u2nlOOap-8" value="Are the gateway and the other party’s gateway authenticated with integrity?" style="rhombus;whiteSpace=wrap;html=1;" vertex="1" parent="1">
          <mxGeometry x="207" y="-4303" width="414" height="80" as="geometry" />
        </mxCell>
        <mxCell id="6JRFztURBps6u2nlOOap-9" value="" style="endArrow=classic;html=1;rounded=0;entryX=0.5;entryY=0;entryDx=0;entryDy=0;exitX=0.5;exitY=1;exitDx=0;exitDy=0;" edge="1" parent="1" source="6JRFztURBps6u2nlOOap-8" target="6JRFztURBps6u2nlOOap-5">
          <mxGeometry width="50" height="50" relative="1" as="geometry">
            <mxPoint x="400" y="-4223" as="sourcePoint" />
            <mxPoint x="450" y="-4273" as="targetPoint" />
          </mxGeometry>
        </mxCell>
        <mxCell id="6JRFztURBps6u2nlOOap-10" value="Encryption with the other party’s RSA public key" style="shape=document;whiteSpace=wrap;html=1;boundedLbl=1;" vertex="1" parent="1">
          <mxGeometry x="354" y="-3980" width="120" height="80" as="geometry" />
        </mxCell>
        <mxCell id="6JRFztURBps6u2nlOOap-11" value="" style="endArrow=classic;html=1;rounded=0;exitX=0.531;exitY=0.847;exitDx=0;exitDy=0;exitPerimeter=0;" edge="1" parent="1" source="6JRFztURBps6u2nlOOap-10" target="6JRFztURBps6u2nlOOap-17">
          <mxGeometry width="50" height="50" relative="1" as="geometry">
            <mxPoint x="400" y="-3583" as="sourcePoint" />
            <mxPoint x="414" y="-3680" as="targetPoint" />
          </mxGeometry>
        </mxCell>
        <mxCell id="6JRFztURBps6u2nlOOap-12" style="edgeStyle=orthogonalEdgeStyle;rounded=0;orthogonalLoop=1;jettySize=auto;html=1;entryX=0.5;entryY=0;entryDx=0;entryDy=0;" edge="1" parent="1" source="6JRFztURBps6u2nlOOap-14" target="6JRFztURBps6u2nlOOap-8">
          <mxGeometry relative="1" as="geometry" />
        </mxCell>
        <mxCell id="6JRFztURBps6u2nlOOap-13" style="edgeStyle=orthogonalEdgeStyle;rounded=0;orthogonalLoop=1;jettySize=auto;html=1;entryX=-0.019;entryY=0.552;entryDx=0;entryDy=0;entryPerimeter=0;" edge="1" parent="1" source="6JRFztURBps6u2nlOOap-14" target="6JRFztURBps6u2nlOOap-47">
          <mxGeometry relative="1" as="geometry" />
        </mxCell>
        <mxCell id="6JRFztURBps6u2nlOOap-14" value="Is the other party’s device turned on?" style="rhombus;whiteSpace=wrap;html=1;" vertex="1" parent="1">
          <mxGeometry x="308" y="-4410" width="216" height="80" as="geometry" />
        </mxCell>
        <mxCell id="6JRFztURBps6u2nlOOap-15" value="YES" style="text;html=1;strokeColor=none;fillColor=none;align=center;verticalAlign=middle;whiteSpace=wrap;rounded=0;" vertex="1" parent="1">
          <mxGeometry x="440" y="-4330" width="60" height="30" as="geometry" />
        </mxCell>
        <mxCell id="6JRFztURBps6u2nlOOap-16" value="YES" style="text;html=1;strokeColor=none;fillColor=none;align=center;verticalAlign=middle;whiteSpace=wrap;rounded=0;" vertex="1" parent="1">
          <mxGeometry x="430" y="-4210" width="60" height="30" as="geometry" />
        </mxCell>
        <mxCell id="6JRFztURBps6u2nlOOap-17" value="Encrypted content encrypted with server public key" style="shape=document;whiteSpace=wrap;html=1;boundedLbl=1;" vertex="1" parent="1">
          <mxGeometry x="356" y="-3670" width="120" height="80" as="geometry" />
        </mxCell>
        <mxCell id="6JRFztURBps6u2nlOOap-18" value="Encrypted content AES-256 encryption with your own encryption key" style="shape=document;whiteSpace=wrap;html=1;boundedLbl=1;" vertex="1" parent="1">
          <mxGeometry x="354" y="-3540" width="120" height="80" as="geometry" />
        </mxCell>
        <mxCell id="6JRFztURBps6u2nlOOap-19" value="" style="endArrow=classic;html=1;rounded=0;exitX=0.49;exitY=0.844;exitDx=0;exitDy=0;exitPerimeter=0;entryX=0.5;entryY=0;entryDx=0;entryDy=0;" edge="1" parent="1" source="6JRFztURBps6u2nlOOap-17" target="6JRFztURBps6u2nlOOap-18">
          <mxGeometry width="50" height="50" relative="1" as="geometry">
            <mxPoint x="620" y="-3530" as="sourcePoint" />
            <mxPoint x="670" y="-3580" as="targetPoint" />
          </mxGeometry>
        </mxCell>
        <mxCell id="6JRFztURBps6u2nlOOap-20" value="" style="endArrow=classic;html=1;rounded=0;exitX=0.536;exitY=0.868;exitDx=0;exitDy=0;exitPerimeter=0;" edge="1" parent="1" source="6JRFztURBps6u2nlOOap-18">
          <mxGeometry width="50" height="50" relative="1" as="geometry">
            <mxPoint x="620" y="-3270" as="sourcePoint" />
            <mxPoint x="418" y="-3390" as="targetPoint" />
          </mxGeometry>
        </mxCell>
        <mxCell id="6JRFztURBps6u2nlOOap-21" value="Gateway delivery" style="shape=document;whiteSpace=wrap;html=1;boundedLbl=1;" vertex="1" parent="1">
          <mxGeometry x="356" y="-3390" width="120" height="80" as="geometry" />
        </mxCell>
        <mxCell id="6JRFztURBps6u2nlOOap-22" value="" style="edgeStyle=orthogonalEdgeStyle;rounded=0;orthogonalLoop=1;jettySize=auto;html=1;" edge="1" parent="1" target="6JRFztURBps6u2nlOOap-24">
          <mxGeometry relative="1" as="geometry">
            <mxPoint x="65" y="-4560" as="sourcePoint" />
          </mxGeometry>
        </mxCell>
        <mxCell id="6JRFztURBps6u2nlOOap-23" value="A" style="shape=umlActor;verticalLabelPosition=bottom;verticalAlign=top;html=1;outlineConnect=0;" vertex="1" parent="1">
          <mxGeometry x="50" y="-4650" width="30" height="60" as="geometry" />
        </mxCell>
        <mxCell id="6JRFztURBps6u2nlOOap-24" value="B(temporary id 99887)" style="shape=umlActor;verticalLabelPosition=bottom;verticalAlign=top;html=1;outlineConnect=0;" vertex="1" parent="1">
          <mxGeometry x="50" y="-4471" width="30" height="60" as="geometry" />
        </mxCell>
        <mxCell id="6JRFztURBps6u2nlOOap-25" value="Assume 1:1 encryption delivery" style="text;html=1;strokeColor=none;fillColor=none;align=center;verticalAlign=middle;whiteSpace=wrap;rounded=0;" vertex="1" parent="1">
          <mxGeometry x="90" y="-4551" width="60" height="30" as="geometry" />
        </mxCell>
        <mxCell id="6JRFztURBps6u2nlOOap-26" value="" style="endArrow=classic;html=1;rounded=0;exitX=0.541;exitY=0.857;exitDx=0;exitDy=0;exitPerimeter=0;" edge="1" parent="1" source="6JRFztURBps6u2nlOOap-21" target="6JRFztURBps6u2nlOOap-28">
          <mxGeometry width="50" height="50" relative="1" as="geometry">
            <mxPoint x="620" y="-3100" as="sourcePoint" />
            <mxPoint x="421" y="-3160" as="targetPoint" />
          </mxGeometry>
        </mxCell>
        <mxCell id="6JRFztURBps6u2nlOOap-27" style="edgeStyle=orthogonalEdgeStyle;rounded=0;orthogonalLoop=1;jettySize=auto;html=1;exitX=0.513;exitY=0.907;exitDx=0;exitDy=0;exitPerimeter=0;" edge="1" parent="1" source="6JRFztURBps6u2nlOOap-28" target="6JRFztURBps6u2nlOOap-30">
          <mxGeometry relative="1" as="geometry" />
        </mxCell>
        <mxCell id="6JRFztURBps6u2nlOOap-28" value="Gateway AES-256 encryption analysis" style="shape=document;whiteSpace=wrap;html=1;boundedLbl=1;" vertex="1" parent="1">
          <mxGeometry x="361" y="-3200" width="120" height="80" as="geometry" />
        </mxCell>
        <mxCell id="6JRFztURBps6u2nlOOap-29" style="edgeStyle=orthogonalEdgeStyle;rounded=0;orthogonalLoop=1;jettySize=auto;html=1;entryX=0.5;entryY=0;entryDx=0;entryDy=0;" edge="1" parent="1" source="6JRFztURBps6u2nlOOap-30" target="6JRFztURBps6u2nlOOap-32">
          <mxGeometry relative="1" as="geometry" />
        </mxCell>
        <mxCell id="6JRFztURBps6u2nlOOap-30" value="RSA interpretation" style="shape=document;whiteSpace=wrap;html=1;boundedLbl=1;" vertex="1" parent="1">
          <mxGeometry x="356" y="-3070" width="120" height="80" as="geometry" />
        </mxCell>
        <mxCell id="6JRFztURBps6u2nlOOap-31" style="edgeStyle=orthogonalEdgeStyle;rounded=0;orthogonalLoop=1;jettySize=auto;html=1;" edge="1" parent="1" source="6JRFztURBps6u2nlOOap-32" target="6JRFztURBps6u2nlOOap-35">
          <mxGeometry relative="1" as="geometry" />
        </mxCell>
        <mxCell id="6JRFztURBps6u2nlOOap-32" value="Is ID 99887 online?" style="rhombus;whiteSpace=wrap;html=1;" vertex="1" parent="1">
          <mxGeometry x="306" y="-2940" width="216" height="80" as="geometry" />
        </mxCell>
        <mxCell id="6JRFztURBps6u2nlOOap-33" style="edgeStyle=orthogonalEdgeStyle;rounded=0;orthogonalLoop=1;jettySize=auto;html=1;" edge="1" parent="1" source="6JRFztURBps6u2nlOOap-35" target="6JRFztURBps6u2nlOOap-38">
          <mxGeometry relative="1" as="geometry" />
        </mxCell>
        <mxCell id="6JRFztURBps6u2nlOOap-34" style="edgeStyle=orthogonalEdgeStyle;rounded=0;orthogonalLoop=1;jettySize=auto;html=1;entryX=1;entryY=0.5;entryDx=0;entryDy=0;" edge="1" parent="1" source="6JRFztURBps6u2nlOOap-35" target="6JRFztURBps6u2nlOOap-73">
          <mxGeometry relative="1" as="geometry" />
        </mxCell>
        <mxCell id="6JRFztURBps6u2nlOOap-35" value="Is ID 99887 currently attached to the gateway?" style="rhombus;whiteSpace=wrap;html=1;" vertex="1" parent="1">
          <mxGeometry x="324" y="-2810" width="180" height="80" as="geometry" />
        </mxCell>
        <mxCell id="6JRFztURBps6u2nlOOap-36" value="YES" style="text;html=1;strokeColor=none;fillColor=none;align=center;verticalAlign=middle;whiteSpace=wrap;rounded=0;" vertex="1" parent="1">
          <mxGeometry x="421" y="-2850" width="60" height="30" as="geometry" />
        </mxCell>
        <mxCell id="6JRFztURBps6u2nlOOap-37" style="edgeStyle=orthogonalEdgeStyle;rounded=0;orthogonalLoop=1;jettySize=auto;html=1;entryX=0.5;entryY=0;entryDx=0;entryDy=0;" edge="1" parent="1" source="6JRFztURBps6u2nlOOap-38" target="6JRFztURBps6u2nlOOap-40">
          <mxGeometry relative="1" as="geometry" />
        </mxCell>
        <mxCell id="6JRFztURBps6u2nlOOap-38" value="Deliver message to client with corresponding ID" style="shape=document;whiteSpace=wrap;html=1;boundedLbl=1;" vertex="1" parent="1">
          <mxGeometry x="354" y="-2650" width="120" height="80" as="geometry" />
        </mxCell>
        <mxCell id="6JRFztURBps6u2nlOOap-39" value="YES" style="text;html=1;strokeColor=none;fillColor=none;align=center;verticalAlign=middle;whiteSpace=wrap;rounded=0;" vertex="1" parent="1">
          <mxGeometry x="421" y="-2700" width="60" height="30" as="geometry" />
        </mxCell>
        <mxCell id="6JRFztURBps6u2nlOOap-40" value="Client RSA interpretation" style="shape=document;whiteSpace=wrap;html=1;boundedLbl=1;" vertex="1" parent="1">
          <mxGeometry x="354" y="-2530" width="120" height="80" as="geometry" />
        </mxCell>
        <mxCell id="6JRFztURBps6u2nlOOap-41" value="Post to message RAM" style="shape=document;whiteSpace=wrap;html=1;boundedLbl=1;" vertex="1" parent="1">
          <mxGeometry x="354" y="-2400" width="120" height="80" as="geometry" />
        </mxCell>
        <mxCell id="6JRFztURBps6u2nlOOap-42" value="" style="endArrow=classic;html=1;rounded=0;exitX=0.464;exitY=0.948;exitDx=0;exitDy=0;exitPerimeter=0;entryX=0.5;entryY=0;entryDx=0;entryDy=0;" edge="1" parent="1" source="6JRFztURBps6u2nlOOap-40" target="6JRFztURBps6u2nlOOap-41">
          <mxGeometry width="50" height="50" relative="1" as="geometry">
            <mxPoint x="620" y="-2320" as="sourcePoint" />
            <mxPoint x="670" y="-2370" as="targetPoint" />
          </mxGeometry>
        </mxCell>
        <mxCell id="6JRFztURBps6u2nlOOap-43" value="" style="endArrow=classic;html=1;rounded=0;exitX=0.55;exitY=0.875;exitDx=0;exitDy=0;exitPerimeter=0;" edge="1" parent="1" source="6JRFztURBps6u2nlOOap-41" target="6JRFztURBps6u2nlOOap-44">
          <mxGeometry width="50" height="50" relative="1" as="geometry">
            <mxPoint x="620" y="-2150" as="sourcePoint" />
            <mxPoint x="420" y="-2240" as="targetPoint" />
          </mxGeometry>
        </mxCell>
        <mxCell id="6JRFztURBps6u2nlOOap-44" value="mark" style="shape=document;whiteSpace=wrap;html=1;boundedLbl=1;" vertex="1" parent="1">
          <mxGeometry x="361" y="-2260.0000000000005" width="120" height="80" as="geometry" />
        </mxCell>
        <mxCell id="6JRFztURBps6u2nlOOap-45" value="" style="endArrow=classic;html=1;rounded=0;exitX=0.441;exitY=0.956;exitDx=0;exitDy=0;exitPerimeter=0;" edge="1" parent="1" source="6JRFztURBps6u2nlOOap-44" target="6JRFztURBps6u2nlOOap-46">
          <mxGeometry width="50" height="50" relative="1" as="geometry">
            <mxPoint x="620" y="-2060" as="sourcePoint" />
            <mxPoint x="410" y="-2120" as="targetPoint" />
          </mxGeometry>
        </mxCell>
        <mxCell id="6JRFztURBps6u2nlOOap-46" value="Delete in N seconds" style="shape=document;whiteSpace=wrap;html=1;boundedLbl=1;" vertex="1" parent="1">
          <mxGeometry x="354" y="-2130.0000000000005" width="120" height="80" as="geometry" />
        </mxCell>
        <mxCell id="6JRFztURBps6u2nlOOap-47" value="Refuse to send message" style="shape=document;whiteSpace=wrap;html=1;boundedLbl=1;" vertex="1" parent="1">
          <mxGeometry x="590" y="-4420" width="120" height="80" as="geometry" />
        </mxCell>
        <mxCell id="6JRFztURBps6u2nlOOap-48" value="NO" style="text;html=1;strokeColor=none;fillColor=none;align=center;verticalAlign=middle;whiteSpace=wrap;rounded=0;" vertex="1" parent="1">
          <mxGeometry x="517" y="-4410" width="60" height="30" as="geometry" />
        </mxCell>
        <mxCell id="6JRFztURBps6u2nlOOap-49" value="" style="endArrow=classic;html=1;rounded=0;exitX=1;exitY=0.5;exitDx=0;exitDy=0;" edge="1" parent="1" source="6JRFztURBps6u2nlOOap-8">
          <mxGeometry width="50" height="50" relative="1" as="geometry">
            <mxPoint x="400" y="-4210" as="sourcePoint" />
            <mxPoint x="660" y="-4263" as="targetPoint" />
          </mxGeometry>
        </mxCell>
        <mxCell id="6JRFztURBps6u2nlOOap-50" style="edgeStyle=orthogonalEdgeStyle;rounded=0;orthogonalLoop=1;jettySize=auto;html=1;entryX=0.5;entryY=0;entryDx=0;entryDy=0;" edge="1" parent="1" source="6JRFztURBps6u2nlOOap-51" target="6JRFztURBps6u2nlOOap-53">
          <mxGeometry relative="1" as="geometry" />
        </mxCell>
        <mxCell id="6JRFztURBps6u2nlOOap-51" value="Display warning message" style="shape=document;whiteSpace=wrap;html=1;boundedLbl=1;" vertex="1" parent="1">
          <mxGeometry x="660" y="-4290" width="120" height="80" as="geometry" />
        </mxCell>
        <mxCell id="6JRFztURBps6u2nlOOap-52" style="edgeStyle=orthogonalEdgeStyle;rounded=0;orthogonalLoop=1;jettySize=auto;html=1;entryX=1.013;entryY=0.382;entryDx=0;entryDy=0;entryPerimeter=0;" edge="1" parent="1" source="6JRFztURBps6u2nlOOap-53" target="6JRFztURBps6u2nlOOap-10">
          <mxGeometry relative="1" as="geometry">
            <mxPoint x="491.26200000000017" y="-3960.1800000000003" as="targetPoint" />
            <Array as="points">
              <mxPoint x="680" y="-3970" />
              <mxPoint x="491" y="-3970" />
              <mxPoint x="491" y="-3949" />
            </Array>
          </mxGeometry>
        </mxCell>
        <mxCell id="6JRFztURBps6u2nlOOap-53" value="Whether to ignore warnings" style="rhombus;whiteSpace=wrap;html=1;" vertex="1" parent="1">
          <mxGeometry x="680" y="-4171" width="80" height="80" as="geometry" />
        </mxCell>
        <mxCell id="6JRFztURBps6u2nlOOap-54" value="YES" style="text;html=1;strokeColor=none;fillColor=none;align=center;verticalAlign=middle;whiteSpace=wrap;rounded=0;" vertex="1" parent="1">
          <mxGeometry x="630" y="-4091" width="60" height="30" as="geometry" />
        </mxCell>
        <mxCell id="6JRFztURBps6u2nlOOap-55" value="" style="endArrow=classic;html=1;rounded=0;exitX=1;exitY=0.5;exitDx=0;exitDy=0;" edge="1" parent="1" source="6JRFztURBps6u2nlOOap-53">
          <mxGeometry width="50" height="50" relative="1" as="geometry">
            <mxPoint x="400" y="-4140" as="sourcePoint" />
            <mxPoint x="770" y="-4070" as="targetPoint" />
          </mxGeometry>
        </mxCell>
        <mxCell id="6JRFztURBps6u2nlOOap-56" value="Refuse to send message" style="shape=document;whiteSpace=wrap;html=1;boundedLbl=1;" vertex="1" parent="1">
          <mxGeometry x="700" y="-4070" width="120" height="80" as="geometry" />
        </mxCell>
        <mxCell id="6JRFztURBps6u2nlOOap-57" value="NO" style="text;html=1;strokeColor=none;fillColor=none;align=center;verticalAlign=middle;whiteSpace=wrap;rounded=0;" vertex="1" parent="1">
          <mxGeometry x="760" y="-4106" width="60" height="30" as="geometry" />
        </mxCell>
        <mxCell id="6JRFztURBps6u2nlOOap-58" style="edgeStyle=orthogonalEdgeStyle;rounded=0;orthogonalLoop=1;jettySize=auto;html=1;entryX=0.5;entryY=0;entryDx=0;entryDy=0;" edge="1" parent="1" source="6JRFztURBps6u2nlOOap-59" target="6JRFztURBps6u2nlOOap-61">
          <mxGeometry relative="1" as="geometry" />
        </mxCell>
        <mxCell id="6JRFztURBps6u2nlOOap-59" value="Display warning message" style="shape=document;whiteSpace=wrap;html=1;boundedLbl=1;" vertex="1" parent="1">
          <mxGeometry x="70" y="-4189" width="120" height="80" as="geometry" />
        </mxCell>
        <mxCell id="6JRFztURBps6u2nlOOap-60" style="edgeStyle=orthogonalEdgeStyle;rounded=0;orthogonalLoop=1;jettySize=auto;html=1;entryX=0.51;entryY=-0.059;entryDx=0;entryDy=0;entryPerimeter=0;" edge="1" parent="1" source="6JRFztURBps6u2nlOOap-61" target="6JRFztURBps6u2nlOOap-63">
          <mxGeometry relative="1" as="geometry" />
        </mxCell>
        <mxCell id="6JRFztURBps6u2nlOOap-61" value="Whether to ignore warnings" style="rhombus;whiteSpace=wrap;html=1;" vertex="1" parent="1">
          <mxGeometry x="90" y="-4070" width="80" height="80" as="geometry" />
        </mxCell>
        <mxCell id="6JRFztURBps6u2nlOOap-62" style="edgeStyle=orthogonalEdgeStyle;rounded=0;orthogonalLoop=1;jettySize=auto;html=1;" edge="1" parent="1" source="6JRFztURBps6u2nlOOap-63" target="6JRFztURBps6u2nlOOap-67">
          <mxGeometry relative="1" as="geometry" />
        </mxCell>
        <mxCell id="6JRFztURBps6u2nlOOap-63" value="Encryption with the other party’s RSA public key" style="shape=document;whiteSpace=wrap;html=1;boundedLbl=1;" vertex="1" parent="1">
          <mxGeometry x="70" y="-3940" width="120" height="80" as="geometry" />
        </mxCell>
        <mxCell id="6JRFztURBps6u2nlOOap-64" style="edgeStyle=orthogonalEdgeStyle;rounded=0;orthogonalLoop=1;jettySize=auto;html=1;entryX=0.5;entryY=0;entryDx=0;entryDy=0;" edge="1" parent="1" source="6JRFztURBps6u2nlOOap-65">
          <mxGeometry relative="1" as="geometry">
            <mxPoint x="130" y="-3340" as="targetPoint" />
          </mxGeometry>
        </mxCell>
        <mxCell id="6JRFztURBps6u2nlOOap-65" value="&lt;div&gt;Encrypted ContentOpponent Gateway&lt;/div&gt;&lt;div&gt;AES-256 encryption with your own encryption key&lt;/div&gt;" style="shape=document;whiteSpace=wrap;html=1;boundedLbl=1;" vertex="1" parent="1">
          <mxGeometry x="70" y="-3500" width="120" height="80" as="geometry" />
        </mxCell>
        <mxCell id="6JRFztURBps6u2nlOOap-66" style="edgeStyle=orthogonalEdgeStyle;rounded=0;orthogonalLoop=1;jettySize=auto;html=1;" edge="1" parent="1" source="6JRFztURBps6u2nlOOap-67" target="6JRFztURBps6u2nlOOap-65">
          <mxGeometry relative="1" as="geometry" />
        </mxCell>
        <mxCell id="6JRFztURBps6u2nlOOap-67" value="Encrypted content is encrypted with the other party’s gateway public key" style="shape=document;whiteSpace=wrap;html=1;boundedLbl=1;" vertex="1" parent="1">
          <mxGeometry x="60" y="-3690" width="120" height="80" as="geometry" />
        </mxCell>
        <mxCell id="6JRFztURBps6u2nlOOap-68" value="YES&lt;br&gt;" style="text;html=1;strokeColor=none;fillColor=none;align=center;verticalAlign=middle;whiteSpace=wrap;rounded=0;" vertex="1" parent="1">
          <mxGeometry x="147" y="-3980" width="60" height="30" as="geometry" />
        </mxCell>
        <mxCell id="6JRFztURBps6u2nlOOap-69" style="edgeStyle=orthogonalEdgeStyle;rounded=0;orthogonalLoop=1;jettySize=auto;html=1;" edge="1" parent="1" source="6JRFztURBps6u2nlOOap-70">
          <mxGeometry relative="1" as="geometry">
            <mxPoint x="360" y="-3160" as="targetPoint" />
          </mxGeometry>
        </mxCell>
        <mxCell id="6JRFztURBps6u2nlOOap-70" value="&lt;div&gt;Encrypted content within the other party&lt;/div&gt;&lt;div&gt;AES-256 encryption with your own encryption key&lt;/div&gt;" style="shape=document;whiteSpace=wrap;html=1;boundedLbl=1;" vertex="1" parent="1">
          <mxGeometry x="80" y="-3190" width="120" height="80" as="geometry" />
        </mxCell>
        <mxCell id="6JRFztURBps6u2nlOOap-71" style="edgeStyle=orthogonalEdgeStyle;rounded=0;orthogonalLoop=1;jettySize=auto;html=1;" edge="1" parent="1" source="6JRFztURBps6u2nlOOap-72" target="6JRFztURBps6u2nlOOap-70">
          <mxGeometry relative="1" as="geometry" />
        </mxCell>
        <mxCell id="6JRFztURBps6u2nlOOap-72" value="Encrypted contents using Gateway public key" style="shape=document;whiteSpace=wrap;html=1;boundedLbl=1;" vertex="1" parent="1">
          <mxGeometry x="75" y="-3340" width="120" height="80" as="geometry" />
        </mxCell>
        <mxCell id="6JRFztURBps6u2nlOOap-73" value="Delivering information to the other party via the Internet" style="shape=document;whiteSpace=wrap;html=1;boundedLbl=1;" vertex="1" parent="1">
          <mxGeometry x="110" y="-2810" width="120" height="80" as="geometry" />
        </mxCell>
        <mxCell id="6JRFztURBps6u2nlOOap-74" value="NO" style="text;html=1;strokeColor=none;fillColor=none;align=center;verticalAlign=middle;whiteSpace=wrap;rounded=0;" vertex="1" parent="1">
          <mxGeometry x="246" y="-2800" width="60" height="30" as="geometry" />
        </mxCell>
        <mxCell id="6JRFztURBps6u2nlOOap-75" value="NO" style="text;html=1;strokeColor=none;fillColor=none;align=center;verticalAlign=middle;whiteSpace=wrap;rounded=0;" vertex="1" parent="1">
          <mxGeometry x="248" y="-4180" width="60" height="30" as="geometry" />
        </mxCell>
        <mxCell id="6JRFztURBps6u2nlOOap-76" value="" style="endArrow=classic;html=1;rounded=0;exitX=1;exitY=0.5;exitDx=0;exitDy=0;entryX=-0.039;entryY=0.383;entryDx=0;entryDy=0;entryPerimeter=0;" edge="1" parent="1" target="6JRFztURBps6u2nlOOap-77">
          <mxGeometry width="50" height="50" relative="1" as="geometry">
            <mxPoint x="167" y="-4030.5" as="sourcePoint" />
            <mxPoint x="274" y="-4040" as="targetPoint" />
          </mxGeometry>
        </mxCell>
        <mxCell id="6JRFztURBps6u2nlOOap-77" value="Refuse to send message" style="shape=document;whiteSpace=wrap;html=1;boundedLbl=1;" vertex="1" parent="1">
          <mxGeometry x="204" y="-4040" width="120" height="80" as="geometry" />
        </mxCell>
        <mxCell id="6JRFztURBps6u2nlOOap-78" value="NO" style="text;html=1;strokeColor=none;fillColor=none;align=center;verticalAlign=middle;whiteSpace=wrap;rounded=0;" vertex="1" parent="1">
          <mxGeometry x="160" y="-4061" width="60" height="30" as="geometry" />
        </mxCell>
        <mxCell id="6JRFztURBps6u2nlOOap-79" value="" style="endArrow=classic;html=1;rounded=0;entryX=0.138;entryY=0.932;entryDx=0;entryDy=0;entryPerimeter=0;" edge="1" parent="1" source="6JRFztURBps6u2nlOOap-73" target="6JRFztURBps6u2nlOOap-21">
          <mxGeometry width="50" height="50" relative="1" as="geometry">
            <mxPoint x="430" y="-3000" as="sourcePoint" />
            <mxPoint x="480" y="-3050" as="targetPoint" />
          </mxGeometry>
        </mxCell>
      </root>
    </mxGraphModel>
  </diagram>
</mxfile>
